<?xml version="1.0" standalone="no"?>
<!DOCTYPE svg PUBLIC "-//W3C//DTD SVG 20010904//EN"
 "http://www.w3.org/TR/2001/REC-SVG-20010904/DTD/svg10.dtd">
<svg version="1.0" xmlns="http://www.w3.org/2000/svg"
 width="260.000000pt" height="260.000000pt" viewBox="0 0 260.000000 260.000000"
 preserveAspectRatio="xMidYMid meet">
<metadata>
Created by potrace 1.11, written by Peter Selinger 2001-2013
</metadata>
<g transform="translate(0.000000,260.000000) scale(0.100000,-0.100000)"
fill="#000000" stroke="none">
<path d="M0 2570 c0 -19 2 -22 9 -10 6 8 7 18 4 24 -3 5 -1 6 6 2 6 -4 9 -11
6 -16 -3 -4 1 -11 7 -14 10 -5 10 -7 1 -12 -7 -3 -13 -12 -13 -20 0 -8 -4 -14
-10 -14 -5 0 -10 -4 -10 -10 0 -21 31 -9 40 15 12 31 28 32 39 1 5 -13 19 -26
31 -29 28 -7 15 -30 -14 -25 -18 4 -21 0 -21 -21 0 -17 -5 -26 -15 -26 -10 0
-15 9 -15 26 0 21 -3 25 -22 21 -22 -4 -33 -22 -13 -22 6 0 10 -7 10 -15 0 -8
5 -15 10 -15 6 0 10 -5 10 -11 0 -6 -9 -8 -20 -4 -14 5 -20 2 -20 -9 0 -9 5
-16 11 -16 5 0 7 5 3 12 -4 7 -3 8 5 4 6 -4 9 -12 6 -17 -4 -5 -1 -9 5 -9 6 0
2 -13 -9 -29 -25 -35 -26 -38 -5 -38 9 0 20 11 25 24 11 29 27 30 38 0 9 -22
51 -36 51 -16 0 5 -7 9 -15 9 -8 0 -15 6 -15 14 0 8 -6 17 -12 19 -10 4 -10 8
0 15 8 5 14 13 14 17 0 4 -6 12 -14 17 -10 7 -10 11 -1 15 7 2 13 10 13 16 0
7 10 18 21 25 19 12 24 11 38 -4 15 -16 15 -16 -2 -11 -12 5 -20 1 -24 -11 -3
-9 -13 -25 -21 -34 -12 -14 -12 -18 -2 -18 7 0 11 -3 7 -6 -7 -8 16 -33 25
-28 4 3 6 -6 5 -18 -2 -27 -26 -58 -44 -58 -8 0 -18 -11 -23 -25 -5 -14 -14
-25 -20 -25 -6 0 -15 11 -20 25 -9 24 -40 36 -40 15 0 -5 5 -10 10 -10 6 0 10
-7 10 -15 0 -8 4 -15 8 -15 4 0 8 -16 9 -35 1 -19 -3 -35 -8 -35 -5 0 -9 -7
-9 -15 0 -8 -4 -15 -10 -15 -5 0 -10 -4 -10 -8 0 -19 32 -7 40 14 14 35 27 36
39 3 6 -17 14 -28 19 -25 4 2 14 1 21 -4 20 -12 2 -33 -23 -28 -18 4 -21 0
-21 -21 0 -17 -5 -26 -15 -26 -10 0 -15 9 -15 26 0 21 -3 25 -22 21 -22 -4
-33 -22 -13 -22 6 0 10 -7 10 -15 0 -8 5 -15 10 -15 6 0 10 -4 10 -10 0 -5 -9
-10 -20 -10 -11 0 -20 -5 -20 -10 0 -7 130 -10 389 -10 213 1 392 0 397 -1 33
-6 94 3 94 13 0 7 -39 52 -87 100 l-88 88 -57 0 c-32 0 -58 -4 -58 -8 0 -5 10
-18 23 -30 16 -15 38 -22 81 -24 l60 -3 -59 -64 c-57 -60 -60 -62 -66 -40 -4
13 -7 42 -8 65 -1 29 -8 47 -26 64 l-25 23 0 -66 c0 -56 3 -69 20 -79 31 -20
24 -28 -25 -28 -47 0 -56 9 -30 30 11 9 15 32 15 78 l0 65 -25 -23 c-20 -19
-25 -34 -27 -88 l-3 -66 -55 52 -55 52 -3 -45 c-2 -32 -7 -45 -18 -45 -10 0
-13 6 -10 18 4 13 1 19 -9 19 -8 0 -17 -9 -21 -19 -3 -11 -15 -18 -29 -18 -21
0 -22 2 -12 25 7 14 17 25 23 25 6 0 18 8 27 18 15 16 14 20 -22 53 -28 27
-38 44 -38 68 0 17 4 31 9 31 4 0 8 7 8 15 0 8 5 15 10 15 6 0 20 8 31 19 20
19 20 19 -7 40 -44 35 -58 59 -44 76 8 9 8 15 2 15 -20 0 11 45 41 61 29 14
49 53 22 43 -7 -3 -26 9 -44 26 -25 25 -29 35 -21 50 8 15 6 20 -9 25 -24 7
-48 -2 -48 -20 0 -8 4 -15 8 -15 14 0 -15 -46 -36 -56 -27 -13 -49 5 -28 24 7
7 13 10 13 7 0 -14 31 26 35 45 4 20 0 20 -106 18 l-109 -3 0 -25z m106 11
c-6 -10 28 -53 36 -45 3 2 6 -7 6 -21 0 -14 -4 -25 -9 -25 -5 0 -9 5 -9 10 0
6 -6 10 -13 10 -8 0 -20 11 -27 25 -11 20 -11 27 0 40 13 16 25 21 16 6z m171
-61 c3 -11 11 -20 18 -20 7 0 18 -7 25 -15 10 -12 8 -16 -13 -24 -13 -5 -27
-19 -30 -31 -7 -29 -32 -20 -32 11 0 18 -5 24 -20 24 -28 0 -32 18 -6 30 11 5
21 18 21 27 0 25 31 23 37 -2z m-87 -70 c0 -5 7 -10 15 -10 8 0 15 -6 15 -14
0 -8 6 -17 13 -20 9 -5 9 -7 0 -12 -10 -4 -10 -10 0 -24 10 -17 7 -24 -23 -50
-18 -16 -36 -27 -39 -23 -3 4 -10 11 -15 15 -5 3 6 16 25 27 19 12 27 21 19
21 -13 0 -13 1 0 10 13 9 12 13 -5 28 -21 17 -31 62 -14 62 5 0 9 -4 9 -10z
m90 -136 c0 -8 6 -14 13 -14 6 0 18 -4 26 -9 12 -8 12 -12 2 -25 -7 -9 -17
-13 -22 -10 -5 3 -13 -6 -19 -20 -11 -31 -40 -35 -40 -6 0 13 -10 24 -26 30
-30 12 -27 34 4 38 13 2 22 11 22 21 0 10 3 21 7 24 9 9 33 -12 33 -29z m-124
-65 c4 -8 9 -7 16 2 7 11 11 11 15 2 2 -7 11 -13 18 -13 19 0 37 -34 29 -54
-4 -9 -1 -16 6 -16 9 0 8 -6 -3 -18 -10 -10 -17 -23 -17 -28 0 -15 -45 -31
-56 -20 -7 7 -1 19 18 38 34 33 34 39 5 64 -37 33 -48 37 -40 18 4 -11 2 -15
-4 -11 -5 3 -20 -7 -32 -23 -17 -24 -18 -28 -4 -23 10 4 14 2 9 -5 -3 -6 2
-13 13 -17 11 -3 18 -15 19 -30 0 -14 -3 -25 -7 -25 -12 1 -41 28 -41 39 0 6
-5 11 -11 11 -7 0 -9 9 -5 24 3 14 1 26 -4 28 -11 3 46 68 61 68 4 0 11 -5 15
-11z m124 -134 c0 -7 12 -16 26 -19 29 -8 27 -30 -4 -34 -12 -2 -22 -12 -24
-25 -4 -31 -33 -28 -33 3 0 21 -4 25 -25 25 -32 0 -34 29 -2 33 13 2 22 10 22
21 0 10 3 21 7 24 8 9 33 -12 33 -28z m-90 -67 c0 -4 7 -8 15 -8 8 0 15 -7 15
-15 0 -8 5 -15 10 -15 6 0 10 -4 10 -10 0 -16 -36 -12 -50 6 -8 8 -21 19 -31
25 -15 8 -17 6 -12 -7 4 -11 2 -15 -4 -11 -6 4 -13 0 -17 -8 -6 -16 -46 -21
-46 -6 0 21 51 58 80 58 16 0 30 -4 30 -9z"/>
<path d="M312 2585 c-10 -11 -10 -15 -1 -15 7 0 10 -3 6 -6 -8 -8 16 -33 26
-27 4 2 7 17 7 34 0 31 -17 38 -38 14z"/>
<path d="M458 2593 c17 -2 47 -2 65 0 17 2 3 4 -33 4 -36 0 -50 -2 -32 -4z"/>
<path d="M628 2593 c17 -2 47 -2 65 0 17 2 3 4 -33 4 -36 0 -50 -2 -32 -4z"/>
<path d="M848 2593 c17 -2 47 -2 65 0 17 2 3 4 -33 4 -36 0 -50 -2 -32 -4z"/>
<path d="M1000 2593 c0 -12 108 -15 115 -3 4 6 -15 10 -54 10 -34 0 -61 -3
-61 -7z"/>
<path d="M2010 2580 c0 -13 -5 -18 -15 -14 -22 9 -19 -29 3 -49 11 -10 36 -17
60 -17 26 0 42 -5 42 -12 0 -7 14 -27 31 -44 l32 -33 33 33 c19 18 34 38 34
43 0 6 18 10 41 9 32 0 45 5 60 23 24 30 24 41 -1 41 -25 0 -22 23 5 32 12 3
-1 6 -32 7 -46 1 -53 -2 -53 -18 0 -11 -9 -23 -20 -26 -11 -3 -20 -15 -20 -25
0 -14 -5 -18 -17 -13 -12 5 -14 3 -8 -8 6 -11 5 -11 -5 -2 -13 12 -5 37 10 28
5 -3 11 4 15 15 4 11 10 18 15 15 4 -3 10 3 13 14 3 15 -2 18 -30 19 -28 1
-33 -1 -24 -12 8 -10 8 -16 -2 -24 -17 -14 -42 1 -34 22 5 12 0 15 -18 14 -14
-1 -25 -6 -25 -10 0 -15 5 -23 13 -20 9 3 9 -12 1 -21 -9 -9 -34 19 -34 37 0
12 -10 16 -35 16 -28 0 -35 -4 -35 -20z m145 -60 c0 -7 -6 -15 -14 -18 -8 -3
-11 0 -7 7 4 6 0 11 -9 11 -9 0 -14 4 -11 9 9 14 41 6 41 -9z"/>
<path d="M2403 2593 c21 -6 23 -33 2 -33 -20 0 -19 -34 1 -51 9 -7 34 -14 55
-14 22 0 39 -4 39 -9 0 -5 15 -24 34 -42 32 -31 35 -32 50 -15 21 23 20 61 -1
76 -16 12 -9 40 8 30 5 -4 9 10 9 29 0 20 -4 36 -10 36 -5 0 -7 -7 -3 -16 7
-20 -17 -37 -34 -23 -6 6 -9 17 -6 25 6 17 -8 18 -26 2 -8 -7 -11 -8 -8 -2 4
7 -15 11 -61 12 -37 0 -59 -2 -49 -5z m107 -20 c11 -10 20 -23 20 -30 0 -7 7
-10 15 -7 10 4 15 0 15 -15 0 -12 -4 -21 -10 -21 -5 0 -10 5 -10 11 0 5 -4 7
-10 4 -5 -3 -10 1 -10 9 0 9 -9 21 -20 28 -11 7 -20 18 -20 25 0 17 6 16 30
-4z"/>
<path d="M405 2550 l-29 -30 60 0 c54 0 63 3 89 30 l29 30 -60 0 c-54 0 -63
-3 -89 -30z"/>
<path d="M646 2573 l-48 -4 23 -25 c19 -21 32 -24 87 -24 63 0 65 -1 48 -19
-16 -18 -15 -20 31 -57 26 -20 58 -49 70 -63 16 -18 26 -22 33 -15 7 7 -8 32
-50 80 l-60 69 62 3 c48 2 68 8 86 25 l24 22 -59 5 c-53 5 -61 3 -89 -22 l-30
-28 -29 30 c-16 16 -34 29 -39 28 -6 -1 -33 -3 -60 -5z"/>
<path d="M1000 2562 c0 -5 10 -18 23 -30 18 -17 36 -22 80 -22 31 0 57 4 57 8
0 5 -10 18 -23 30 -18 17 -36 22 -80 22 -31 0 -57 -4 -57 -8z"/>
<path d="M538 2537 c-22 -18 -28 -33 -34 -86 -7 -61 -6 -63 13 -53 32 18 40
34 46 100 4 34 6 62 4 62 -1 0 -14 -10 -29 -23z"/>
<path d="M580 2493 c0 -55 4 -73 18 -86 10 -10 22 -17 25 -17 4 0 7 28 7 63 0
55 -3 67 -25 87 l-25 23 0 -70z"/>
<path d="M933 2528 c-19 -20 -23 -36 -23 -83 l0 -60 26 26 c22 22 25 33 22 83
l-3 58 -22 -24z"/>
<path d="M980 2487 c0 -55 3 -67 25 -87 l25 -24 -30 -31 c-26 -27 -30 -38 -30
-88 0 -31 4 -57 8 -57 5 0 18 10 30 23 18 19 22 35 22 87 l0 64 65 -64 65 -64
0 129 0 129 -65 -64 -65 -64 0 65 c0 52 -4 70 -20 87 -12 12 -23 22 -25 22 -3
0 -5 -28 -5 -63z"/>
<path d="M2360 2541 c0 -6 4 -13 10 -16 6 -3 7 1 4 9 -7 18 -14 21 -14 7z"/>
<path d="M1979 2508 c9 -12 10 -18 2 -18 -6 0 -11 -9 -11 -20 0 -11 6 -20 13
-20 8 0 7 -4 -3 -11 -12 -9 -11 -10 8 -6 12 3 22 1 22 -4 0 -5 -8 -9 -18 -9
-27 0 -24 -80 3 -90 18 -6 17 -7 -3 -12 -16 -4 -22 -14 -22 -32 0 -27 14 -35
26 -15 6 10 26 8 75 -7 11 -3 18 3 22 16 3 11 1 20 -4 20 -5 0 -9 -4 -9 -10 0
-5 -5 -10 -12 -10 -7 0 5 15 25 34 33 30 52 67 27 51 -5 -3 -10 1 -10 10 0 9
4 14 9 11 5 -4 7 4 3 16 -4 16 -2 19 9 13 8 -5 1 7 -16 27 -27 33 -34 37 -75
35 -29 -1 -45 2 -45 10 0 7 -7 18 -15 25 -12 11 -12 11 -1 -4z m119 -63 l27
-25 -27 12 c-15 7 -30 19 -33 26 -7 19 3 15 33 -13z m-84 -51 c3 -8 2 -12 -4
-9 -6 3 -10 10 -10 16 0 14 7 11 14 -7z m36 -19 c0 -8 -4 -15 -10 -15 -5 0
-10 7 -10 15 0 8 5 15 10 15 6 0 10 -7 10 -15z"/>
<path d="M2331 2500 c-13 -11 -19 -20 -14 -20 6 0 18 9 28 20 23 25 17 25 -14
0z"/>
<path d="M374 2475 c3 -22 6 -78 6 -125 l0 -84 55 54 c30 30 55 58 55 63 0 5
-27 37 -61 70 l-61 62 6 -40z"/>
<path d="M2354 2489 c-21 -13 -39 -17 -66 -13 -32 6 -40 2 -73 -30 -37 -37
-42 -64 -11 -58 17 3 18 -18 1 -30 -15 -11 62 -78 89 -78 13 0 34 -9 47 -19
24 -19 25 -19 48 0 13 10 34 19 47 19 13 0 33 9 44 20 21 21 46 28 35 10 -10
-16 1 -11 16 7 12 14 12 15 0 9 -10 -7 -12 -3 -6 13 3 11 2 21 -3 21 -5 0 -9
7 -9 15 0 8 4 12 9 9 4 -3 8 1 8 9 0 16 -31 47 -48 47 -7 0 -12 4 -12 9 0 5
-15 12 -34 15 -19 4 -40 14 -47 24 -13 15 -12 16 4 3 9 -8 19 -12 22 -10 2 3
-4 10 -14 16 -14 9 -24 7 -47 -8z m-71 -26 c-13 -2 -23 -9 -23 -14 0 -5 -6 -9
-14 -9 -8 0 -24 -12 -35 -26 -12 -15 -21 -22 -21 -15 0 10 9 20 55 61 6 5 21
9 35 8 23 -1 23 -1 3 -5z m74 -36 c-1 -5 -13 -12 -26 -14 -15 -2 -21 1 -18 9
2 7 10 12 16 11 6 -2 11 2 11 8 0 5 5 7 11 4 5 -4 8 -12 6 -18z m28 12 c-4 -6
0 -9 11 -7 14 2 18 -2 16 -15 -2 -12 4 -21 17 -24 13 -3 21 -14 21 -26 0 -11
-3 -17 -6 -14 -4 3 -15 2 -25 -4 -15 -7 -17 -6 -13 6 3 8 10 12 15 9 5 -3 9
-1 9 4 0 6 -7 12 -15 16 -8 3 -15 13 -15 21 0 9 -4 14 -9 10 -12 -7 -24 12
-16 25 3 6 8 10 11 10 3 0 2 -5 -1 -11z m-55 -43 c0 -3 -4 -8 -10 -11 -5 -3
-10 -1 -10 4 0 6 5 11 10 11 6 0 10 -2 10 -4z m53 -32 c-3 -8 -11 -14 -18 -14
-18 0 -26 25 -12 39 14 14 38 -5 30 -25z m-72 4 c23 -25 25 -35 4 -18 -8 6
-19 9 -25 5 -6 -3 -10 3 -10 14 0 27 8 26 31 -1z m49 -47 c0 -15 -16 -22 -34
-15 -25 9 -19 24 9 24 14 0 25 -4 25 -9z m60 0 c0 -12 -29 -23 -41 -15 -18 10
-9 24 16 24 14 0 25 -4 25 -9z"/>
<path d="M2453 2473 c15 -2 27 -8 27 -13 0 -4 7 -10 15 -14 12 -4 13 -2 2 14
-8 14 -22 20 -42 19 l-30 -2 28 -4z"/>
<path d="M647 2392 l-77 -77 0 -60 0 -59 30 29 c25 24 30 37 32 87 l3 59 65
-66 64 -65 -65 0 c-56 0 -69 -4 -87 -23 -12 -13 -22 -26 -22 -30 0 -4 26 -7
58 -7 52 0 62 3 87 30 l29 30 33 -32 c36 -35 54 -32 33 7 -9 17 -22 25 -39 25
l-25 0 30 31 c29 30 29 30 11 61 -14 25 -15 28 -2 18 8 -7 15 -9 15 -4 0 22
-74 124 -89 124 -4 0 -41 -35 -84 -78z"/>
<path d="M2521 2435 c0 -5 6 -19 14 -29 8 -11 15 -15 15 -10 0 6 -7 19 -15 30
-8 10 -14 15 -14 9z"/>
<path d="M350 2419 c0 -5 -3 -8 -7 -6 -5 2 -18 -8 -30 -23 l-23 -28 23 5 c13
3 17 1 11 -4 -9 -6 -8 -11 2 -21 11 -10 14 -8 18 10 3 13 7 35 11 51 3 15 3
27 0 27 -3 0 -5 -5 -5 -11z"/>
<path d="M500 2316 c0 -57 26 -116 51 -116 5 0 9 26 9 58 0 52 -3 62 -30 87
l-30 29 0 -58z"/>
<path d="M900 2353 c0 -13 47 -143 54 -150 3 -4 6 21 6 54 0 49 -4 63 -23 81
-24 23 -37 28 -37 15z"/>
<path d="M2180 2352 c0 -8 14 -27 30 -42 17 -15 30 -33 30 -39 0 -6 8 -11 18
-10 10 0 12 3 5 6 -7 2 -13 11 -13 18 0 8 -9 17 -20 20 -11 4 -27 18 -35 33
-8 15 -14 21 -15 14z"/>
<path d="M2586 2337 c3 -10 9 -15 12 -12 3 3 0 11 -7 18 -10 9 -11 8 -5 -6z"/>
<path d="M2117 2320 c-9 -11 -13 -20 -8 -20 5 0 4 -11 -2 -25 -10 -21 -19 -25
-54 -25 -34 0 -46 -5 -59 -24 -12 -19 -13 -29 -5 -43 6 -10 11 -12 11 -5 0 6
4 12 10 12 5 0 7 -7 4 -15 -4 -8 -12 -15 -20 -15 -8 0 -14 -5 -14 -11 0 -20
21 -49 36 -49 19 0 63 50 64 71 0 9 7 20 16 23 10 4 13 2 8 -6 -4 -7 -3 -8 4
-4 7 4 12 16 12 27 0 11 7 19 16 19 9 0 12 5 8 13 -5 9 -4 9 6 0 7 -6 18 -9
26 -6 7 2 21 0 31 -6 17 -10 17 -10 1 -12 -10 -1 -22 -3 -28 -4 -5 -1 -13 -3
-17 -4 -3 0 2 -10 11 -20 22 -25 11 -45 -19 -37 -13 3 -26 2 -29 -3 -8 -12 4
-41 16 -41 5 0 6 5 3 10 -3 6 -1 10 4 10 6 0 11 -7 11 -15 0 -20 -29 -19 -36
0 -5 12 -9 13 -20 4 -19 -16 -10 -41 29 -81 l32 -33 33 32 c17 17 32 36 32 42
0 6 19 11 44 11 35 0 48 5 60 22 20 28 20 48 1 48 -8 0 -15 5 -15 10 0 6 7 10
15 10 21 0 19 26 -5 50 -13 13 -33 20 -60 20 -24 0 -40 5 -40 12 0 6 -16 26
-35 44 -34 31 -36 32 -48 13 -16 -25 -31 -25 -17 1 6 11 9 20 8 20 -2 0 -11
-9 -21 -20z m133 -150 c0 -11 -4 -20 -10 -20 -5 0 -10 9 -10 20 0 11 5 20 10
20 6 0 10 -9 10 -20z m-65 -50 c-3 -5 -1 -10 4 -10 6 0 11 5 11 11 0 5 5 7 11
3 8 -5 6 -10 -5 -16 -18 -10 -39 -2 -31 13 4 5 8 9 11 9 3 0 2 -4 -1 -10z"/>
<path d="M2533 2303 c-18 -17 -33 -36 -33 -42 0 -6 -17 -11 -38 -11 -25 0 -45
-7 -55 -18 -22 -24 -23 -56 -2 -48 10 4 15 -1 15 -14 0 -13 -5 -18 -15 -14
-22 9 -19 -29 3 -49 10 -10 35 -17 55 -17 20 0 37 -4 37 -9 0 -5 16 -25 35
-43 25 -26 37 -32 45 -24 9 8 11 6 8 -9 -4 -26 -38 -33 -39 -8 0 10 -3 13 -5
6 -3 -7 -13 -4 -29 10 -44 41 -54 47 -78 47 -26 0 -77 35 -77 53 0 6 13 -2 29
-17 16 -16 35 -26 43 -23 9 4 8 6 -4 6 -9 1 -27 15 -40 32 l-24 30 -12 -26
c-7 -15 -8 -24 -2 -20 16 10 11 -1 -7 -16 -14 -12 -16 -12 -8 0 6 11 4 13 -9
8 -10 -4 -21 -7 -24 -7 -4 0 0 -5 8 -10 12 -8 9 -10 -12 -10 -16 0 -37 -9 -48
-20 -21 -21 -46 -28 -35 -10 3 6 12 10 19 10 8 0 16 9 19 20 3 11 1 20 -4 20
-5 0 -9 -5 -9 -11 0 -6 -11 -20 -24 -30 -14 -11 -28 -28 -31 -39 -8 -26 -32
-26 -40 0 -3 11 -16 28 -29 37 -13 10 -25 25 -29 33 -4 12 -6 12 -6 -2 -1 -10
8 -22 19 -28 11 -6 25 -20 31 -33 10 -18 7 -17 -14 6 -14 15 -33 27 -42 27
-14 0 -35 -36 -35 -61 0 -5 113 -9 279 -9 l279 0 1 65 c0 36 -4 65 -9 65 -6 0
-10 7 -10 16 0 8 5 12 10 9 6 -4 10 11 10 38 0 33 -4 47 -17 52 -17 6 -17 7 0
19 22 17 22 55 -1 81 -17 20 -17 20 -49 -12z m27 -77 c0 -9 -9 -14 -20 -13
-22 1 -27 13 -7 20 21 9 27 7 27 -7z m-57 -56 c3 -13 0 -20 -9 -20 -8 0 -14 9
-14 20 0 11 4 20 9 20 5 0 11 -9 14 -20z m87 0 c0 -13 -7 -20 -20 -20 -13 0
-20 7 -20 20 0 13 7 20 20 20 13 0 20 -7 20 -20z m-30 -55 c0 -8 -4 -15 -8
-15 -5 0 -9 7 -9 15 0 8 4 15 9 15 4 0 8 -7 8 -15z m-200 -96 c0 -5 -4 -9 -8
-9 -5 0 -9 7 -9 15 0 8 4 12 9 9 4 -3 8 -9 8 -15z m44 15 c24 -9 19 -24 -6
-23 -13 0 -17 3 -9 6 11 5 11 7 0 14 -16 10 -8 12 15 3z m-203 -37 c-10 -9
-11 -8 -5 6 3 10 9 15 12 12 3 -3 0 -11 -7 -18z"/>
<path d="M2480 2285 c0 -10 -10 -15 -34 -15 -22 0 -41 -8 -56 -23 l-23 -23
-23 23 c-13 13 -33 23 -46 22 -18 -1 -16 -3 9 -10 18 -5 38 -21 46 -35 l13
-25 22 31 c18 24 30 30 61 30 30 0 40 4 44 20 3 11 1 20 -4 20 -5 0 -9 -7 -9
-15z"/>
<path d="M810 2261 c0 -5 7 -11 15 -15 8 -3 15 -1 15 3 0 5 -7 11 -15 15 -8 3
-15 1 -15 -3z"/>
<path d="M1310 2260 c0 -5 5 -10 11 -10 5 0 7 5 4 10 -3 6 -8 10 -11 10 -2 0
-4 -4 -4 -10z"/>
<path d="M1987 2252 c-10 -10 -17 -23 -17 -28 0 -5 5 -1 11 9 6 10 20 22 32
27 15 6 17 9 6 9 -9 1 -23 -7 -32 -17z"/>
<path d="M380 2232 c0 -5 10 -18 23 -30 18 -17 35 -22 82 -22 l59 0 -29 30
c-25 26 -36 30 -82 30 -29 0 -53 -4 -53 -8z"/>
<path d="M1015 2210 l-29 -30 60 0 c54 0 63 3 89 30 l29 30 -60 0 c-54 0 -63
-3 -89 -30z"/>
<path d="M317 2194 c-10 -13 -13 -24 -7 -24 6 0 9 -4 6 -9 -7 -10 19 -23 28
-14 9 9 7 61 -1 66 -5 3 -16 -6 -26 -19z"/>
<path d="M7 2193 c-11 -11 -8 -21 9 -27 13 -5 14 -4 6 7 -7 8 -9 17 -5 20 3 4
4 7 1 7 -2 0 -8 -3 -11 -7z"/>
<path d="M400 2148 c-30 -32 -25 -38 33 -38 46 0 57 4 82 30 l29 30 -62 0
c-50 0 -65 -4 -82 -22z"/>
<path d="M796 2149 c-37 -29 -32 -39 19 -39 46 0 53 8 39 44 -8 22 -26 20 -58
-5z"/>
<path d="M997 2163 c-4 -3 3 -17 15 -30 18 -19 31 -23 87 -23 l65 0 -29 30
c-25 26 -36 30 -80 30 -29 0 -55 -3 -58 -7z"/>
<path d="M970 2146 c0 -5 12 -30 27 -55 25 -41 28 -44 31 -22 3 16 -6 34 -27
55 -17 17 -31 27 -31 22z"/>
<path d="M1972 2090 c0 -17 4 -28 9 -24 5 3 7 9 4 14 -3 4 0 10 6 12 7 2 6 8
-3 16 -13 10 -15 7 -16 -18z"/>
<path d="M1112 2057 c-23 -24 -42 -45 -42 -49 0 -3 16 -13 36 -23 47 -22 58
-10 55 57 -1 29 -3 54 -5 55 -1 1 -21 -17 -44 -40z"/>
<path d="M2476 2067 c7 -19 64 -60 64 -47 0 6 -11 16 -25 22 -14 6 -25 17 -25
25 0 7 -4 13 -10 13 -5 0 -7 -6 -4 -13z"/>
<path d="M1760 1978 c0 -5 35 -7 78 -7 78 2 69 6 -26 11 -28 2 -52 0 -52 -4z"/>
<path d="M203 1882 l-203 -2 0 -90 c0 -55 4 -90 10 -90 6 0 27 7 48 16 23 9
66 15 112 15 75 0 75 0 51 18 l-24 18 54 -4 c90 -6 172 -24 219 -46 34 -15 68
-21 138 -23 88 -2 93 -1 89 17 -6 22 0 23 33 4 31 -18 64 -19 106 -3 55 20 69
79 31 135 l-22 33 -220 2 c-121 2 -311 2 -422 0z m402 -72 c-3 -5 -10 -10 -16
-10 -5 0 -9 5 -9 10 0 6 7 10 16 10 8 0 12 -4 9 -10z"/>
<path d="M1758 1878 c8 -8 17 -8 34 0 22 10 21 11 -11 11 -27 1 -32 -2 -23
-11z"/>
<path d="M1992 1850 c-13 -27 -15 -37 -5 -33 22 9 15 -8 -26 -61 -60 -78 -58
-85 23 -118 77 -31 59 -33 306 17 158 32 166 41 55 64 -83 17 -191 49 -246 73
-51 21 -81 64 -54 74 23 9 18 19 -10 20 -19 2 -28 -7 -43 -36z"/>
<path d="M2383 1873 c9 -2 23 -2 30 0 6 3 -1 5 -18 5 -16 0 -22 -2 -12 -5z"/>
<path d="M2578 1867 c-6 -16 1 -37 13 -37 12 0 12 37 0 44 -5 3 -11 0 -13 -7z"/>
<path d="M2129 1854 c-12 -14 -9 -20 16 -40 50 -40 191 -83 271 -84 l42 0 4
45 c3 43 2 45 -30 56 -120 39 -279 51 -303 23z"/>
<path d="M2550 1840 c0 -5 5 -10 10 -10 6 0 10 5 10 10 0 6 -4 10 -10 10 -5 0
-10 -4 -10 -10z"/>
<path d="M120 1710 c-19 -4 -53 -14 -75 -22 -36 -13 -40 -19 -43 -51 l-3 -37
243 0 243 1 -30 24 c-16 14 -55 34 -85 46 -30 11 -62 24 -71 29 -24 13 -140
19 -179 10z"/>
<path d="M2543 1666 c18 -14 24 -32 7 -21 -5 3 -10 -1 -10 -9 0 -9 -5 -16 -11
-16 -5 0 -7 5 -4 10 3 6 2 10 -3 10 -14 0 -28 -33 -31 -72 0 -10 -6 -18 -11
-18 -6 0 -10 15 -9 33 5 75 -18 91 -89 61 -50 -21 -201 -53 -256 -56 -25 0
-46 -2 -46 -4 0 -4 314 -104 328 -104 6 0 12 -7 12 -16 0 -14 -13 -16 -100
-12 -79 3 -99 1 -96 -9 4 -10 -10 -13 -55 -13 -115 0 -249 -49 -257 -94 -5
-23 123 -150 170 -171 19 -8 26 -14 16 -15 -43 -1 -4 -46 47 -56 51 -9 114 3
160 31 22 13 59 34 83 47 23 12 42 28 42 35 0 21 32 15 59 -11 15 -13 40 -27
58 -31 26 -5 34 -3 43 15 10 19 8 26 -19 54 -40 41 -41 59 -1 21 l30 -29 0
216 0 216 -31 11 c-41 14 -48 13 -26 -3z m-56 -156 c1 -10 -2 -22 -7 -25 -6
-4 -10 7 -10 26 0 34 12 33 17 -1z m9 -144 c8 -21 13 -40 11 -43 -7 -7 -37 76
-36 100 1 20 2 20 6 2 2 -11 11 -37 19 -59z"/>
<path d="M1363 1620 c-34 -14 -28 -23 10 -14 17 4 50 11 72 15 l40 6 -50 1
c-27 0 -60 -3 -72 -8z"/>
<path d="M1157 1570 c-53 -33 -64 -49 -14 -20 17 10 49 22 70 25 20 4 37 11
37 16 0 19 -48 8 -93 -21z"/>
<path d="M1614 1586 c-10 -8 -17 -17 -14 -19 3 -3 16 3 30 13 29 22 14 27 -16
6z"/>
<path d="M1445 1554 l-40 -14 40 6 c22 3 44 10 50 15 12 12 0 10 -50 -7z"/>
<path d="M6 1475 c2 -99 1 -95 19 -95 8 0 15 -6 15 -14 0 -8 6 -17 13 -20 10
-5 10 -7 -1 -12 -16 -7 -16 -31 1 -37 8 -3 6 -9 -7 -19 -17 -13 -17 -16 -2
-31 15 -15 15 -18 -1 -37 -21 -25 -30 -25 -36 -2 -2 9 -3 -20 -2 -64 1 -75 4
-84 28 -106 30 -28 34 -38 13 -38 -9 0 -12 -7 -9 -20 3 -11 9 -20 14 -20 16 0
9 -18 -8 -22 -15 -3 -15 -4 0 -20 17 -16 17 -18 0 -38 -21 -25 -30 -25 -35 -2
-2 9 -4 -19 -3 -64 1 -76 3 -83 30 -109 20 -18 26 -29 17 -32 -16 -6 -16 -40
0 -45 9 -3 7 -10 -6 -24 -18 -17 -18 -19 -3 -22 21 -4 22 -19 3 -38 -18 -17
-33 -18 -39 -1 -3 10 -2 -125 2 -145 2 -12 31 -9 31 2 0 6 -7 10 -15 10 -8 0
-15 7 -15 15 0 8 7 15 15 15 8 0 15 7 15 15 0 8 -7 15 -15 15 -8 0 -15 7 -15
15 0 12 17 15 95 15 58 0 104 5 116 12 17 11 23 10 26 0 3 -6 10 -9 16 -5 6 4
139 6 294 6 272 -1 283 0 283 18 0 10 -7 19 -15 19 -8 0 -15 7 -15 15 0 8 7
15 15 15 8 0 15 7 15 15 0 8 -7 15 -15 15 -8 0 -15 5 -15 10 0 6 7 10 15 10 8
0 15 9 15 20 0 11 -7 20 -15 20 -8 0 -15 5 -15 10 0 6 7 10 15 10 12 0 15 14
15 70 0 79 -9 86 -60 50 -29 -21 -60 -18 -60 6 0 8 8 14 18 14 21 0 72 49 72
69 0 8 6 11 15 7 10 -4 15 1 15 14 0 11 -7 20 -15 20 -8 0 -15 4 -15 9 0 5 7
11 15 15 19 7 19 36 0 36 -8 0 -15 5 -15 10 0 6 7 10 15 10 8 0 15 9 15 20 0
25 -25 26 -40 3 -8 -13 -13 -14 -16 -5 -8 17 -34 15 -34 -3 0 -8 7 -15 15 -15
8 0 15 -4 15 -10 0 -5 -9 -10 -19 -10 -14 0 -18 -5 -14 -20 3 -11 10 -20 15
-20 11 0 38 -25 38 -35 0 -10 -28 -35 -39 -35 -6 0 -11 -7 -11 -15 0 -8 -7
-15 -15 -15 -8 0 -15 7 -15 15 0 8 -7 15 -15 15 -8 0 -15 -7 -15 -15 0 -8 -7
-15 -15 -15 -8 0 -15 7 -15 15 0 8 -7 15 -15 15 -8 0 -15 -7 -15 -15 0 -8 -7
-15 -15 -15 -8 0 -15 -7 -15 -15 0 -8 7 -15 15 -15 8 0 15 -7 15 -15 0 -8 -7
-15 -15 -15 -8 0 -15 -7 -15 -15 0 -8 7 -15 15 -15 8 0 15 7 15 15 0 8 7 15
15 15 8 0 15 -7 15 -15 0 -8 7 -15 15 -15 8 0 15 7 15 15 0 8 -7 15 -15 15 -8
0 -15 7 -15 15 0 8 7 15 15 15 8 0 15 -7 15 -15 0 -8 7 -15 15 -15 21 0 19
-12 -5 -33 -23 -19 -40 -22 -40 -7 0 6 -7 10 -15 10 -8 0 -15 -4 -15 -10 0 -5
-7 -10 -15 -10 -8 0 -15 5 -15 10 0 6 -7 10 -15 10 -8 0 -15 7 -15 15 0 8 7
15 15 15 8 0 15 7 15 15 0 8 -7 15 -15 15 -8 0 -15 7 -15 15 0 8 7 15 15 15 8
0 15 7 15 15 0 8 -7 15 -15 15 -8 0 -15 5 -15 10 0 6 -7 10 -15 10 -8 0 -15
-4 -15 -10 0 -5 -7 -10 -15 -10 -8 0 -15 5 -15 10 0 6 -7 10 -15 10 -8 0 -15
-4 -15 -10 0 -5 -7 -10 -15 -10 -8 0 -15 5 -15 10 0 6 -7 10 -15 10 -8 0 -15
-4 -15 -10 0 -5 -7 -10 -15 -10 -8 0 -15 -7 -15 -15 0 -8 -7 -15 -15 -15 -8 0
-15 -7 -15 -15 0 -8 -7 -15 -15 -15 -8 0 -15 -7 -15 -15 0 -8 7 -15 15 -15 8
0 15 -7 15 -15 0 -8 7 -15 15 -15 8 0 15 -4 15 -10 0 -18 -21 -10 -51 19 -16
16 -29 33 -29 37 0 4 11 17 25 30 28 26 32 44 10 44 -8 0 -15 -7 -15 -15 0
-19 -16 -19 -24 0 -7 19 -36 19 -36 0 0 -21 -7 -19 -33 8 -12 13 -30 26 -40
30 -20 8 -14 27 9 27 8 0 14 7 14 15 0 8 -9 15 -20 15 -11 0 -20 5 -20 10 0 6
9 10 20 10 29 0 27 37 -2 43 l-23 4 23 8 c12 4 22 14 22 21 0 8 5 14 10 14 6
0 10 -7 10 -15 0 -8 6 -15 14 -15 8 0 16 7 20 15 3 8 10 15 16 15 5 0 10 -7
10 -15 0 -24 19 -18 49 15 15 17 30 27 34 24 12 -12 8 -24 -8 -24 -8 0 -15 -7
-15 -15 0 -8 7 -15 15 -15 8 0 15 -7 15 -15 0 -8 7 -15 15 -15 8 0 15 -4 15
-10 0 -5 -9 -10 -19 -10 -14 0 -18 -5 -14 -20 3 -11 12 -20 19 -20 8 0 14 -4
14 -10 0 -5 7 -10 15 -10 8 0 15 5 15 10 0 6 7 10 15 10 8 0 15 -4 15 -10 0
-5 7 -10 15 -10 8 0 15 5 15 10 0 6 7 10 15 10 8 0 15 -4 15 -10 0 -5 7 -10
15 -10 8 0 15 7 15 15 0 8 -7 15 -15 15 -8 0 -15 5 -15 10 0 6 9 10 19 10 14
0 18 5 14 20 -3 11 -12 20 -19 20 -8 0 -14 5 -14 10 0 6 7 10 15 10 8 0 15 7
15 15 0 8 7 15 15 15 8 0 15 -7 15 -15 0 -8 7 -15 15 -15 8 0 15 7 15 15 0 8
-7 15 -15 15 -8 0 -15 5 -15 10 0 6 -27 10 -61 10 -33 0 -68 4 -77 9 -24 12
-127 21 -110 9 9 -7 5 -8 -12 -4 -34 7 -70 -3 -70 -20 0 -8 -4 -14 -10 -14 -5
0 -10 5 -10 10 0 6 -35 10 -82 11 l-83 0 45 13 c96 28 149 49 147 59 -1 5 4
12 10 14 7 3 13 0 13 -5 0 -7 11 -6 30 1 31 12 41 37 15 37 -8 0 -15 -7 -15
-15 0 -8 -4 -15 -9 -15 -5 0 -11 7 -15 15 -3 8 -12 15 -21 15 -8 0 -15 -7 -15
-15 0 -8 -4 -15 -10 -15 -5 0 -10 7 -10 15 0 8 -7 15 -15 15 -8 0 -15 4 -15 9
0 5 -9 11 -21 14 -23 6 -17 27 7 27 8 0 14 7 14 15 0 18 -36 20 -43 3 -2 -8
-8 -9 -13 -4 -5 5 -4 11 4 13 16 6 16 30 0 36 -8 2 -9 8 -4 13 5 5 11 4 13 -3
7 -18 43 -16 43 2 0 8 -9 15 -20 15 -11 0 -20 5 -20 10 0 6 9 10 20 10 11 0
20 7 20 15 0 20 10 19 26 -2 13 -17 15 -17 25 0 12 21 29 22 29 2 0 -8 6 -15
14 -15 8 0 16 7 20 15 3 8 10 15 16 15 5 0 10 -7 10 -15 0 -8 7 -15 15 -15 8
0 15 -7 15 -15 0 -8 7 -15 15 -15 8 0 15 -4 15 -10 0 -5 7 -10 15 -10 8 0 15
5 15 10 0 6 7 10 15 10 8 0 15 -4 15 -10 0 -5 7 -10 15 -10 8 0 15 5 15 10 0
6 7 10 15 10 8 0 15 -4 15 -10 0 -5 7 -10 15 -10 8 0 15 7 15 15 0 8 -7 15
-15 15 -8 0 -15 5 -15 10 0 6 7 10 15 10 8 0 15 7 15 15 0 8 7 15 15 15 8 0
15 -7 15 -15 0 -8 7 -15 15 -15 8 0 15 7 15 15 0 8 7 15 15 15 8 0 15 -7 15
-15 0 -8 7 -15 15 -15 8 0 15 7 15 15 0 8 -7 15 -15 15 -8 0 -15 7 -15 15 0 8
7 15 15 15 8 0 15 7 15 15 0 8 7 15 15 15 8 0 15 -7 15 -15 0 -8 7 -15 15 -15
8 0 15 -7 15 -15 0 -8 -7 -15 -15 -15 -8 0 -15 7 -15 15 0 8 -7 15 -15 15 -20
0 -19 -16 3 -38 18 -18 20 -18 48 4 l29 24 -23 22 c-16 17 -33 22 -62 22 -22
-1 -40 2 -40 6 0 13 -48 29 -69 23 -13 -3 -21 -1 -21 7 0 7 7 10 16 6 11 -4
14 -1 12 12 -3 15 -17 17 -106 20 -86 2 -102 0 -102 -13 0 -19 -19 -20 -26 0
-4 8 -12 15 -20 15 -8 0 -14 -7 -14 -15 0 -8 7 -15 15 -15 8 0 15 -4 15 -10 0
-5 -5 -10 -11 -10 -14 0 -39 25 -39 39 0 6 -9 11 -20 11 -11 0 -20 -7 -20 -15
0 -8 7 -15 15 -15 8 0 15 -4 15 -10 0 -5 -5 -10 -11 -10 -14 0 -39 25 -39 39
0 7 -38 11 -110 11 -76 0 -109 -3 -107 -11 1 -6 -3 -13 -10 -16 -6 -2 -13 4
-15 14 -2 10 -3 -18 -2 -62z m234 35 c0 -5 -4 -10 -10 -10 -5 0 -10 5 -10 10
0 6 5 10 10 10 6 0 10 -4 10 -10z m-205 -30 c-3 -5 -10 -10 -16 -10 -5 0 -9 5
-9 10 0 6 7 10 16 10 8 0 12 -4 9 -10z m235 0 c0 -5 -4 -10 -10 -10 -5 0 -10
5 -10 10 0 6 5 10 10 10 6 0 10 -4 10 -10z m60 0 c0 -5 -4 -10 -10 -10 -5 0
-10 5 -10 10 0 6 5 10 10 10 6 0 10 -4 10 -10z m60 0 c0 -5 -7 -10 -15 -10 -8
0 -15 -7 -15 -15 0 -8 -7 -15 -15 -15 -8 0 -15 -7 -15 -15 0 -8 -4 -15 -10
-15 -18 0 -11 21 18 50 27 29 52 39 52 20z m240 0 c0 -5 7 -10 15 -10 8 0 15
-7 15 -15 0 -8 -7 -15 -15 -15 -8 0 -15 -7 -15 -15 0 -8 -7 -15 -15 -15 -8 0
-15 7 -15 15 0 8 -7 15 -15 15 -8 0 -15 7 -15 15 0 8 7 15 15 15 8 0 15 5 15
10 0 6 7 10 15 10 8 0 15 -4 15 -10z m-384 -27 c13 -17 15 -17 25 0 12 21 29
22 29 2 0 -8 -7 -15 -15 -15 -8 0 -15 -7 -15 -15 0 -8 -4 -15 -10 -15 -5 0
-10 7 -10 15 0 8 -7 15 -15 15 -8 0 -15 7 -15 15 0 20 10 19 26 -2z m-214 -28
c0 -5 -5 -11 -11 -13 -6 -2 -11 4 -11 13 0 9 5 15 11 13 6 -2 11 -8 11 -13z
m358 0 c0 -8 -4 -15 -9 -15 -13 0 -22 16 -14 24 11 11 23 6 23 -9z m-295 -55
c-3 -5 -10 -10 -16 -10 -5 0 -9 5 -9 10 0 6 7 10 16 10 8 0 12 -4 9 -10z m55
0 c0 -5 -4 -10 -10 -10 -5 0 -10 5 -10 10 0 6 5 10 10 10 6 0 10 -4 10 -10z
m300 0 c0 -5 -7 -10 -15 -10 -8 0 -15 5 -15 10 0 6 7 10 15 10 8 0 15 -4 15
-10z m60 0 c0 -5 -7 -10 -15 -10 -8 0 -15 5 -15 10 0 6 7 10 15 10 8 0 15 -4
15 -10z m-390 -25 c0 -8 -34 -45 -42 -45 -5 0 -8 7 -8 15 0 8 7 15 15 15 8 0
15 5 15 10 0 6 5 10 10 10 6 0 10 -2 10 -5z m30 -30 c0 -8 -4 -15 -10 -15 -5
0 -10 7 -10 15 0 8 5 15 10 15 6 0 10 -7 10 -15z m-30 -25 c0 -5 -4 -10 -10
-10 -5 0 -10 5 -10 10 0 6 5 10 10 10 6 0 10 -4 10 -10z m-28 -35 c0 -5 -5
-11 -11 -13 -6 -2 -11 4 -11 13 0 9 5 15 11 13 6 -2 11 -8 11 -13z m58 5 c0
-5 -4 -10 -10 -10 -5 0 -10 5 -10 10 0 6 5 10 10 10 6 0 10 -4 10 -10z m-30
-30 c0 -5 -4 -10 -10 -10 -5 0 -10 5 -10 10 0 6 5 10 10 10 6 0 10 -4 10 -10z
m60 0 c0 -5 -4 -10 -10 -10 -5 0 -10 5 -10 10 0 6 5 10 10 10 6 0 10 -4 10
-10z m60 -55 c0 -8 -4 -15 -10 -15 -5 0 -10 7 -10 15 0 8 5 15 10 15 6 0 10
-7 10 -15z m-200 -25 c0 -5 -7 -10 -15 -10 -8 0 -15 5 -15 10 0 6 7 10 15 10
8 0 15 -4 15 -10z m-8 -55 c0 -5 -5 -11 -11 -13 -6 -2 -11 4 -11 13 0 9 5 15
11 13 6 -2 11 -8 11 -13z m298 0 c0 -8 -4 -15 -10 -15 -5 0 -10 7 -10 15 0 8
5 15 10 15 6 0 10 -7 10 -15z m-235 -55 c3 -5 -1 -10 -9 -10 -9 0 -16 5 -16
10 0 6 4 10 9 10 6 0 13 -4 16 -10z m55 0 c0 -5 -4 -10 -10 -10 -5 0 -10 5
-10 10 0 6 5 10 10 10 6 0 10 -4 10 -10z m300 0 c0 -5 -7 -10 -15 -10 -8 0
-15 5 -15 10 0 6 7 10 15 10 8 0 15 -4 15 -10z m60 0 c0 -5 -7 -10 -15 -10 -8
0 -15 5 -15 10 0 6 7 10 15 10 8 0 15 -4 15 -10z m-390 -30 c0 -5 -4 -10 -10
-10 -5 0 -10 5 -10 10 0 6 5 10 10 10 6 0 10 -4 10 -10z m60 0 c0 -5 -4 -10
-10 -10 -5 0 -10 5 -10 10 0 6 5 10 10 10 6 0 10 -4 10 -10z m300 0 c0 -5 -7
-10 -15 -10 -8 0 -15 5 -15 10 0 6 7 10 15 10 8 0 15 -4 15 -10z m60 0 c0 -5
-7 -10 -15 -10 -8 0 -15 5 -15 10 0 6 7 10 15 10 8 0 15 -4 15 -10z m-440 -30
c0 -5 -7 -10 -15 -10 -8 0 -15 5 -15 10 0 6 7 10 15 10 8 0 15 -4 15 -10z m50
0 c0 -5 -4 -10 -10 -10 -5 0 -10 5 -10 10 0 6 5 10 10 10 6 0 10 -4 10 -10z
m300 0 c0 -5 -7 -10 -15 -10 -8 0 -15 5 -15 10 0 6 7 10 15 10 8 0 15 -4 15
-10z m60 0 c0 -5 -7 -10 -15 -10 -8 0 -15 5 -15 10 0 6 7 10 15 10 8 0 15 -4
15 -10z m290 0 c0 -5 -4 -10 -10 -10 -5 0 -10 5 -10 10 0 6 5 10 10 10 6 0 10
-4 10 -10z m-680 -30 c0 -5 -4 -10 -10 -10 -5 0 -10 5 -10 10 0 6 5 10 10 10
6 0 10 -4 10 -10z m60 0 c0 -5 -4 -10 -10 -10 -5 0 -10 5 -10 10 0 6 5 10 10
10 6 0 10 -4 10 -10z m-88 -25 c0 -5 -5 -11 -11 -13 -6 -2 -11 4 -11 13 0 9 5
15 11 13 6 -2 11 -8 11 -13z m58 0 c0 -8 -4 -15 -10 -15 -5 0 -10 7 -10 15 0
8 5 15 10 15 6 0 10 -7 10 -15z m-30 -25 c0 -5 -4 -10 -10 -10 -5 0 -10 5 -10
10 0 6 5 10 10 10 6 0 10 -4 10 -10z m60 0 c0 -5 -4 -10 -10 -10 -5 0 -10 5
-10 10 0 6 5 10 10 10 6 0 10 -4 10 -10z m60 -55 c0 -8 -4 -15 -10 -15 -5 0
-10 7 -10 15 0 8 5 15 10 15 6 0 10 -7 10 -15z m60 0 c0 -8 -7 -15 -15 -15 -8
0 -15 -7 -15 -15 0 -8 7 -15 15 -15 8 0 15 -7 15 -15 0 -8 -3 -15 -8 -15 -8 0
-42 36 -42 45 0 9 34 45 42 45 5 0 8 -7 8 -15z m360 0 c0 -8 -7 -15 -15 -15
-8 0 -15 7 -15 15 0 8 7 15 15 15 8 0 15 -7 15 -15z m60 0 c0 -8 -7 -15 -15
-15 -8 0 -15 7 -15 15 0 8 7 15 15 15 8 0 15 -7 15 -15z m-688 -30 c0 -5 -5
-11 -11 -13 -6 -2 -11 4 -11 13 0 9 5 15 11 13 6 -2 11 -8 11 -13z m358 0 c0
-8 -4 -15 -9 -15 -13 0 -22 16 -14 24 11 11 23 6 23 -9z m-150 -30 c0 -8 -4
-15 -10 -15 -5 0 -10 7 -10 15 0 8 5 15 10 15 6 0 10 -7 10 -15z m-200 -25 c0
-5 -7 -10 -15 -10 -8 0 -15 5 -15 10 0 6 7 10 15 10 8 0 15 -4 15 -10z m230 0
c0 -5 -4 -10 -10 -10 -5 0 -10 5 -10 10 0 6 5 10 10 10 6 0 10 -4 10 -10z m60
0 c0 -5 -4 -10 -10 -10 -5 0 -10 5 -10 10 0 6 5 10 10 10 6 0 10 -4 10 -10z
m420 0 c0 -5 -7 -10 -15 -10 -8 0 -15 5 -15 10 0 6 7 10 15 10 8 0 15 -4 15
-10z m-510 -30 c0 -5 7 -10 15 -10 8 0 15 5 15 10 0 6 7 10 15 10 8 0 15 -4
15 -10 0 -5 7 -10 15 -10 8 0 15 5 15 10 0 6 7 10 15 10 8 0 15 -4 15 -10 0
-5 7 -10 15 -10 8 0 15 -7 15 -15 0 -8 7 -15 15 -15 8 0 15 7 15 15 0 8 7 15
15 15 8 0 15 -7 15 -15 0 -8 7 -15 15 -15 8 0 15 7 15 15 0 8 7 15 15 15 8 0
15 -7 15 -15 0 -8 7 -15 15 -15 8 0 15 7 15 15 0 8 7 15 15 15 8 0 15 5 15 10
0 6 7 10 15 10 8 0 15 -4 15 -10 0 -5 7 -10 15 -10 8 0 15 5 15 10 0 6 7 10
15 10 8 0 15 -4 15 -10 0 -5 7 -10 15 -10 8 0 15 5 15 10 0 6 7 10 15 10 8 0
15 -4 15 -10 0 -5 7 -10 15 -10 8 0 15 -7 15 -15 0 -8 7 -15 15 -15 8 0 15 7
15 15 0 8 5 15 10 15 6 0 10 -5 10 -11 0 -14 -25 -39 -39 -39 -6 0 -11 -9 -11
-20 0 -11 7 -20 15 -20 8 0 15 -4 15 -10 0 -5 -7 -10 -15 -10 -20 0 -19 -26 2
-34 14 -6 14 -9 -5 -26 -23 -22 -42 -26 -42 -10 0 6 -7 10 -15 10 -8 0 -15 -4
-15 -10 0 -5 -7 -10 -15 -10 -8 0 -15 5 -15 10 0 6 -7 10 -15 10 -8 0 -15 -4
-15 -10 0 -5 -7 -10 -15 -10 -8 0 -15 5 -15 10 0 6 -7 10 -15 10 -8 0 -15 7
-15 15 0 8 -7 15 -15 15 -8 0 -15 5 -15 10 0 6 7 10 15 10 8 0 15 9 15 20 0
11 -7 20 -15 20 -8 0 -15 5 -15 10 0 6 7 10 15 10 8 0 15 7 15 15 0 8 -7 15
-15 15 -8 0 -15 -4 -15 -10 0 -5 -7 -10 -15 -10 -8 0 -15 5 -15 10 0 6 -7 10
-15 10 -8 0 -15 -4 -15 -10 0 -5 -7 -10 -15 -10 -8 0 -15 5 -15 10 0 6 -7 10
-15 10 -8 0 -15 -4 -15 -10 0 -5 -7 -10 -15 -10 -8 0 -15 -9 -15 -20 0 -11 7
-20 15 -20 8 0 15 -4 15 -10 0 -5 -7 -10 -15 -10 -8 0 -15 -7 -15 -15 0 -8 7
-15 15 -15 8 0 15 5 15 10 0 6 7 10 15 10 8 0 15 -4 15 -10 0 -5 7 -10 15 -10
8 0 15 5 15 10 0 6 7 10 15 10 8 0 15 -4 15 -10 0 -5 -7 -10 -15 -10 -8 0 -15
-7 -15 -15 0 -8 -7 -15 -15 -15 -8 0 -15 7 -15 15 0 8 -7 15 -15 15 -8 0 -15
-7 -15 -15 0 -8 -7 -15 -15 -15 -8 0 -15 -4 -15 -10 0 -5 -7 -10 -15 -10 -8 0
-15 5 -15 10 0 14 -27 12 -34 -2 -5 -10 -7 -10 -12 0 -3 6 -14 12 -24 12 -10
0 -21 -6 -24 -12 -5 -10 -7 -10 -12 0 -3 6 -12 12 -20 12 -8 0 -14 6 -14 14 0
7 -10 17 -22 21 l-23 8 23 4 c29 6 31 43 2 43 -11 0 -20 5 -20 10 0 6 9 10 20
10 11 0 20 7 20 15 0 18 -36 20 -43 3 -2 -7 -7 -10 -11 -6 -10 8 25 48 41 48
7 0 13 5 13 10 0 6 5 10 10 10 6 0 10 -4 10 -10z m-148 -25 c0 -5 -5 -11 -11
-13 -6 -2 -11 4 -11 13 0 9 5 15 11 13 6 -2 11 -8 11 -13z m58 0 c0 -8 -4 -15
-10 -15 -5 0 -10 7 -10 15 0 8 5 15 10 15 6 0 10 -7 10 -15z m-30 -25 c0 -5
-4 -10 -10 -10 -5 0 -10 5 -10 10 0 6 5 10 10 10 6 0 10 -4 10 -10z m-25 -30
c3 -5 -1 -10 -9 -10 -9 0 -16 5 -16 10 0 6 4 10 9 10 6 0 13 -4 16 -10z m55 0
c0 -5 -4 -10 -10 -10 -5 0 -10 5 -10 10 0 6 5 10 10 10 6 0 10 -4 10 -10z
m300 0 c0 -5 -7 -10 -15 -10 -8 0 -15 5 -15 10 0 6 7 10 15 10 8 0 15 -4 15
-10z m60 0 c0 -5 -7 -10 -15 -10 -8 0 -15 5 -15 10 0 6 7 10 15 10 8 0 15 -4
15 -10z m290 0 c0 -5 -4 -10 -10 -10 -5 0 -10 5 -10 10 0 6 5 10 10 10 6 0 10
-4 10 -10z m-680 -30 c0 -5 -4 -10 -10 -10 -5 0 -10 5 -10 10 0 6 5 10 10 10
6 0 10 -4 10 -10z m60 0 c0 -5 -4 -10 -10 -10 -5 0 -10 5 -10 10 0 6 5 10 10
10 6 0 10 -4 10 -10z m300 0 c0 -5 -7 -10 -15 -10 -8 0 -15 5 -15 10 0 6 7 10
15 10 8 0 15 -4 15 -10z m60 0 c0 -5 -7 -10 -15 -10 -8 0 -15 5 -15 10 0 6 7
10 15 10 8 0 15 -4 15 -10z m-445 -30 c-3 -5 -10 -10 -16 -10 -5 0 -9 5 -9 10
0 6 7 10 16 10 8 0 12 -4 9 -10z m55 0 c0 -5 -4 -10 -10 -10 -5 0 -10 5 -10
10 0 6 5 10 10 10 6 0 10 -4 10 -10z m650 0 c0 -5 -4 -10 -10 -10 -5 0 -10 5
-10 10 0 6 5 10 10 10 6 0 10 -4 10 -10z m-680 -25 c0 -8 -4 -15 -10 -15 -5 0
-10 7 -10 15 0 8 5 15 10 15 6 0 10 -7 10 -15z m60 0 c0 -8 -4 -15 -10 -15 -5
0 -10 7 -10 15 0 8 5 15 10 15 6 0 10 -7 10 -15z m360 -6 c0 -5 -7 -9 -15 -9
-15 0 -20 12 -9 23 8 8 24 -1 24 -14z"/>
<path d="M600 1455 c0 -8 7 -15 15 -15 8 0 15 7 15 15 0 8 -7 15 -15 15 -8 0
-15 -7 -15 -15z"/>
<path d="M1626 1541 c-4 -7 -5 -15 -2 -18 9 -9 19 4 14 18 -4 11 -6 11 -12 0z"/>
<path d="M1193 1488 c-18 -6 -33 -15 -33 -19 0 -5 2 -9 5 -9 10 0 65 30 65 35
0 3 -1 5 -2 4 -2 -1 -18 -6 -35 -11z"/>
<path d="M1385 1391 c-3 -6 -21 -11 -40 -11 -19 0 -37 -5 -41 -12 -5 -8 -2 -9
10 -5 10 4 27 7 39 7 26 0 54 16 45 25 -3 4 -9 2 -13 -4z"/>
<path d="M390 1315 c0 -8 7 -15 15 -15 8 0 15 7 15 15 0 8 -7 15 -15 15 -8 0
-15 -7 -15 -15z"/>
<path d="M450 1315 c0 -8 7 -15 15 -15 8 0 15 7 15 15 0 8 -7 15 -15 15 -8 0
-15 -7 -15 -15z"/>
<path d="M510 1315 c0 -8 7 -15 15 -15 8 0 15 7 15 15 0 8 -7 15 -15 15 -8 0
-15 -7 -15 -15z"/>
<path d="M1430 1314 c-14 -8 -18 -14 -10 -14 8 1 24 7 34 15 24 19 10 18 -24
-1z"/>
<path d="M420 1290 c0 -5 -7 -10 -15 -10 -8 0 -15 -9 -15 -20 0 -11 7 -20 15
-20 8 0 15 -4 15 -10 0 -5 -7 -10 -15 -10 -8 0 -15 -5 -15 -11 0 -14 42 -1 56
17 6 8 18 14 27 14 10 0 14 5 11 15 -4 9 0 15 10 15 9 0 16 -4 16 -10 0 -5 7
-10 15 -10 8 0 15 5 15 10 0 6 7 10 15 10 8 0 15 7 15 15 0 8 -7 15 -15 15 -8
0 -15 -4 -15 -10 0 -5 -7 -10 -15 -10 -8 0 -15 5 -15 10 0 6 -7 10 -15 10 -8
0 -15 -4 -15 -10 0 -5 -7 -10 -15 -10 -8 0 -15 5 -15 10 0 6 -7 10 -15 10 -8
0 -15 -4 -15 -10z m30 -30 c0 -5 -7 -10 -15 -10 -8 0 -15 5 -15 10 0 6 7 10
15 10 8 0 15 -4 15 -10z"/>
<path d="M1355 1293 c-11 -3 -24 -9 -29 -14 -5 -4 8 -3 30 2 58 16 57 26 -1
12z"/>
<path d="M1786 1173 c-6 -14 -5 -15 5 -6 7 7 10 15 7 18 -3 3 -9 -2 -12 -12z"/>
<path d="M2378 1102 c-34 -20 -38 -55 -8 -50 25 4 70 68 48 68 -7 0 -25 -8
-40 -18z"/>
<path d="M1694 1058 l-29 -33 33 29 c30 28 37 36 29 36 -2 0 -16 -15 -33 -32z"/>
<path d="M2298 1063 c6 -2 18 -2 25 0 6 3 1 5 -13 5 -14 0 -19 -2 -12 -5z"/>
<path d="M668 1053 c7 -3 16 -2 19 1 4 3 -2 6 -13 5 -11 0 -14 -3 -6 -6z"/>
<path d="M857 1030 c3 -11 9 -17 14 -14 14 8 10 34 -5 34 -9 0 -12 -7 -9 -20z"/>
<path d="M2134 1038 c-8 -12 15 -38 33 -38 8 0 12 -4 9 -9 -10 -16 51 -33 119
-33 77 -1 79 -7 3 -15 -68 -6 -75 -13 -61 -63 l10 -40 -39 35 c-37 34 -40 35
-96 29 -45 -5 -64 -13 -89 -37 -26 -24 -33 -27 -33 -14 0 17 -34 23 -105 18
-50 -4 -47 -15 11 -45 54 -28 55 -28 76 -10 21 19 21 19 9 -4 -17 -32 -9 -46
41 -78 53 -34 118 -94 118 -109 0 -24 40 -53 84 -59 26 -4 44 -12 41 -17 -4
-5 -11 -7 -16 -4 -5 4 -16 2 -25 -3 -31 -17 5 -24 174 -32 156 -8 167 -10 185
-32 l19 -23 -7 45 c-3 24 -11 50 -17 58 -9 10 -8 12 3 10 12 -2 14 31 17 202
l3 205 -56 -3 c-33 -3 -76 3 -110 13 -51 17 -80 16 -134 -1 -21 -6 -22 -5 -12
15 11 19 9 21 -14 21 -15 0 -34 4 -44 10 -26 13 -90 19 -97 8z m269 -95 c-7
-2 -19 -2 -25 0 -7 3 -2 5 12 5 14 0 19 -2 13 -5z"/>
<path d="M2258 1043 c7 -3 16 -2 19 1 4 3 -2 6 -13 5 -11 0 -14 -3 -6 -6z"/>
<path d="M1499 1023 c-13 -16 -12 -17 4 -4 16 13 21 21 13 21 -2 0 -10 -8 -17
-17z"/>
<path d="M2308 1033 c7 -3 16 -2 19 1 4 3 -2 6 -13 5 -11 0 -14 -3 -6 -6z"/>
<path d="M1775 1020 c-4 -6 -4 -23 -1 -38 4 -15 8 -42 11 -61 6 -48 19 -56 35
-24 28 55 61 93 83 93 18 1 16 4 -13 20 -38 21 -105 26 -115 10z"/>
<path d="M1990 1016 c0 -2 16 -14 35 -26 39 -24 71 -23 34 2 -26 17 -69 32
-69 24z"/>
<path d="M1000 943 c0 -7 -7 -13 -15 -13 -8 0 -15 -4 -15 -10 0 -5 6 -10 14
-10 8 0 21 -3 30 -6 20 -8 20 6 1 32 -8 11 -15 14 -15 7z"/>
<path d="M1413 943 c9 -2 25 -2 35 0 9 3 1 5 -18 5 -19 0 -27 -2 -17 -5z"/>
<path d="M390 925 c0 -8 7 -15 15 -15 8 0 15 7 15 15 0 8 -7 15 -15 15 -8 0
-15 -7 -15 -15z"/>
<path d="M450 925 c0 -8 7 -15 15 -15 8 0 15 7 15 15 0 8 -7 15 -15 15 -8 0
-15 -7 -15 -15z"/>
<path d="M510 925 c0 -8 7 -15 15 -15 8 0 15 7 15 15 0 8 -7 15 -15 15 -8 0
-15 -7 -15 -15z"/>
<path d="M750 925 c0 -8 7 -15 15 -15 8 0 15 7 15 15 0 8 -7 15 -15 15 -8 0
-15 -7 -15 -15z"/>
<path d="M1935 931 c-3 -5 -17 -8 -30 -5 -25 4 -31 -2 -17 -22 8 -13 31 -12
75 0 21 6 25 11 16 17 -8 4 -19 3 -26 -3 -10 -8 -12 -7 -7 6 7 17 -1 22 -11 7z"/>
<path d="M2095 920 c-8 -13 15 -13 35 0 12 8 11 10 -7 10 -12 0 -25 -4 -28
-10z"/>
<path d="M936 902 c-2 -4 -4 -49 -5 -100 l-2 -93 37 7 c58 11 86 44 82 100 -3
46 -4 47 -55 70 -29 12 -54 20 -57 16z"/>
<path d="M1620 900 c-22 -14 -17 -103 9 -168 25 -63 28 -100 5 -62 -15 24 -15
24 -9 -15 4 -22 11 -46 17 -53 6 -7 10 -35 9 -62 0 -28 4 -50 9 -50 6 0 10 5
10 10 0 6 63 10 169 10 165 0 169 0 164 20 -3 11 -14 25 -25 31 -11 6 -17 16
-15 22 2 6 -14 36 -35 66 -21 30 -38 65 -38 78 0 15 -8 27 -23 32 -13 5 -31
21 -40 35 -10 14 -23 26 -30 26 -6 0 -39 21 -71 45 -61 46 -79 52 -106 35z"/>
<path d="M1267 840 c-14 -16 -33 -51 -42 -77 -9 -26 -21 -56 -26 -65 -12 -24
-11 -28 5 -28 7 0 31 -13 52 -30 21 -16 72 -52 113 -80 73 -50 74 -50 153 -50
78 0 79 0 72 23 -9 30 -9 30 -89 136 -57 76 -71 89 -73 71 -3 -17 -13 -7 -53
54 -56 85 -74 92 -112 46z m92 -54 c39 -42 8 -30 -39 15 -36 34 -38 39 -14 26
16 -8 40 -27 53 -41z m-78 -41 c-18 -8 -38 -15 -45 -15 -15 1 46 28 64 29 8 0
0 -6 -19 -14z"/>
<path d="M1080 765 c-1 -5 -2 -13 -1 -17 0 -5 -3 -8 -9 -8 -5 0 -10 -9 -10
-20 0 -22 25 -28 32 -7 3 6 1 23 -3 37 -4 14 -8 21 -9 15z"/>
<path d="M1020 710 c-13 -8 -13 -10 2 -10 9 0 20 5 23 10 8 13 -5 13 -25 0z"/>
<path d="M1043 653 c9 -2 23 -2 30 0 6 3 -1 5 -18 5 -16 0 -22 -2 -12 -5z"/>
<path d="M930 604 c0 -26 3 -34 9 -25 5 7 24 14 42 16 49 4 49 4 49 14 0 5
-16 12 -36 15 -19 4 -42 10 -50 13 -11 4 -14 -4 -14 -33z"/>
<path d="M1613 565 c0 -8 4 -12 9 -9 5 3 6 10 3 15 -9 13 -12 11 -12 -6z"/>
<path d="M1112 540 c0 -14 2 -19 5 -12 2 6 2 18 0 25 -3 6 -5 1 -5 -13z"/>
<path d="M1613 516 c0 -17 4 -23 14 -19 11 4 11 8 1 22 -7 9 -13 17 -14 19 -1
2 -1 -8 -1 -22z"/>
<path d="M1660 440 c0 -5 5 -10 11 -10 5 0 7 5 4 10 -3 6 -8 10 -11 10 -2 0
-4 -4 -4 -10z"/>
<path d="M1638 418 c7 -7 12 -25 12 -40 0 -20 5 -28 18 -27 10 0 12 3 5 6 -7
2 -13 13 -13 23 0 27 -11 50 -23 50 -7 0 -7 -4 1 -12z"/>
<path d="M2480 202 c0 -6 -7 -9 -16 -5 -11 4 -15 0 -14 -13 5 -40 1 -42 -75
-41 -41 0 -75 4 -75 9 0 7 56 13 89 9 7 -2 10 2 7 8 -8 13 -146 13 -146 0 0
-8 15 -13 33 -10 4 0 7 -3 7 -9 0 -5 -6 -10 -13 -10 -7 0 -21 -6 -30 -12 -14
-11 4 -12 100 -10 71 1 113 -1 105 -6 -8 -5 -30 -7 -50 -5 -20 2 -48 0 -62 -6
-17 -7 -20 -10 -7 -10 21 -1 23 -21 2 -21 -8 0 -15 -4 -15 -10 0 -5 5 -10 11
-10 5 0 7 -5 4 -10 -4 -6 -10 -8 -15 -5 -5 3 -21 3 -36 -1 l-27 -7 24 -13 c15
-8 30 -9 41 -3 10 6 19 5 23 -1 3 -5 26 -10 51 -10 32 0 44 4 44 15 0 9 -9 15
-25 15 -14 0 -25 5 -25 11 0 5 5 7 10 4 6 -3 10 -1 10 4 0 21 -38 11 -45 -12
-3 -12 -8 -17 -11 -11 -3 6 1 24 7 40 6 16 13 23 16 17 3 -7 12 -13 20 -13 15
0 63 -47 63 -62 0 -12 99 -9 121 2 33 18 22 37 -26 44 -50 6 -85 21 -85 36 0
6 6 10 14 10 8 0 17 6 20 13 3 6 3 0 0 -15 -6 -25 -4 -26 43 -26 41 -1 49 2
50 19 1 11 -2 17 -8 14 -5 -4 -9 1 -9 10 0 11 -5 15 -15 11 -8 -3 -15 -1 -15
4 0 6 -21 10 -47 11 -33 0 -42 3 -29 8 14 5 16 10 7 15 -9 6 -9 11 0 22 6 8 9
17 5 21 -3 3 -6 1 -6 -5z m77 -98 c-3 -3 -12 -4 -19 -1 -8 3 -5 6 6 6 11 1 17
-2 13 -5z m-30 -76 c-3 -8 -6 -5 -6 6 -1 11 2 17 5 13 3 -3 4 -12 1 -19z"/>
<path d="M2556 191 c-6 -9 35 -24 43 -15 6 5 -18 24 -31 24 -4 0 -9 -4 -12 -9z"/>
<path d="M2418 163 c6 -2 18 -2 25 0 6 3 1 5 -13 5 -14 0 -19 -2 -12 -5z"/>
<path d="M2190 146 c0 -2 7 -9 15 -16 13 -11 14 -10 9 4 -5 14 -24 23 -24 12z"/>
<path d="M50 121 c11 -8 7 -10 -18 -5 l-32 7 0 -62 0 -61 54 0 c34 0 56 5 59
13 3 10 9 10 26 0 11 -7 49 -13 83 -13 48 1 59 3 46 11 -10 5 -24 9 -30 7 -7
-1 -23 3 -34 10 -12 6 -31 9 -43 7 -12 -2 -21 1 -21 8 0 19 132 16 147 -3 7
-8 13 -13 13 -10 9 39 10 38 -77 38 -47 0 -87 3 -90 6 -4 3 -12 1 -20 -5 -10
-9 -13 -8 -13 2 -1 10 -4 9 -14 -4 -11 -13 -19 -15 -37 -8 -24 10 -24 10 4 10
17 1 27 6 27 16 0 15 11 19 40 15 21 -3 7 10 -16 15 -11 2 -30 7 -44 10 -20 5
-22 4 -10 -4z"/>
<path d="M880 110 c0 -5 6 -7 14 -4 8 3 17 0 21 -5 7 -12 25 -5 25 10 0 5 -13
9 -30 9 -16 0 -30 -4 -30 -10z"/>
<path d="M1077 68 c2 -5 13 -8 23 -8 10 0 21 3 23 8 3 4 -8 7 -23 7 -15 0 -26
-3 -23 -7z"/>
<path d="M1902 56 c-7 -16 -8 -26 -1 -26 12 0 22 25 17 41 -2 6 -9 0 -16 -15z"/>
<path d="M1148 63 c7 -3 16 -2 19 1 4 3 -2 6 -13 5 -11 0 -14 -3 -6 -6z"/>
<path d="M1631 54 c0 -11 3 -14 6 -6 3 7 2 16 -1 19 -3 4 -6 -2 -5 -13z"/>
<path d="M2109 54 c18 -8 36 -24 38 -35 5 -16 8 -18 14 -7 7 10 9 10 9 1 0 -7
11 -13 25 -13 16 0 23 4 19 14 -3 9 5 15 26 19 26 6 29 9 18 21 -11 11 -14 11
-23 0 -11 -15 -85 -8 -85 7 0 5 -17 9 -37 8 l-38 -1 34 -14z"/>
<path d="M2178 63 c7 -3 16 -2 19 1 4 3 -2 6 -13 5 -11 0 -14 -3 -6 -6z"/>
<path d="M413 36 c-9 -11 -6 -16 14 -27 22 -12 26 -11 34 4 6 9 20 17 32 17
18 0 19 2 7 10 -22 14 -73 12 -87 -4z"/>
<path d="M1785 40 c-3 -5 1 -10 9 -10 9 0 16 5 16 10 0 6 -4 10 -9 10 -6 0
-13 -4 -16 -10z"/>
<path d="M1841 38 c-1 -11 -9 -18 -21 -18 -43 0 -17 -15 28 -17 29 -1 40 1 28
6 -11 4 -23 16 -27 27 -7 17 -8 17 -8 2z"/>
<path d="M633 25 c-3 -9 -3 -19 1 -22 3 -4 6 2 6 11 0 15 5 17 26 12 17 -5 23
-3 19 4 -10 15 -45 12 -52 -5z"/>
<path d="M837 20 c3 -11 9 -17 14 -14 14 8 10 34 -5 34 -9 0 -12 -7 -9 -20z"/>
<path d="M1245 30 c-16 -7 -17 -9 -3 -9 9 -1 20 4 23 9 7 11 7 11 -20 0z"/>
<path d="M1963 22 c-1 -14 7 -17 42 -17 58 0 66 11 18 24 -52 15 -59 14 -60
-7z"/>
<path d="M2110 20 c0 -11 5 -20 10 -20 6 0 10 9 10 20 0 11 -4 20 -10 20 -5 0
-10 -9 -10 -20z"/>
<path d="M728 23 c6 -2 18 -2 25 0 6 3 1 5 -13 5 -14 0 -19 -2 -12 -5z"/>
<path d="M1367 23 c-10 -9 -9 -23 2 -23 5 0 11 7 15 15 5 15 -5 20 -17 8z"/>
<path d="M1410 20 c0 -5 5 -10 11 -10 5 0 7 5 4 10 -3 6 -8 10 -11 10 -2 0 -4
-4 -4 -10z"/>
<path d="M1495 15 c-30 -13 -29 -13 23 -13 29 0 55 5 59 11 3 5 0 7 -8 5 -8
-3 -21 -2 -29 2 -8 5 -29 2 -45 -5z"/>
<path d="M1591 14 c0 -11 3 -14 6 -6 3 7 2 16 -1 19 -3 4 -6 -2 -5 -13z"/>
<path d="M1656 15 c4 -10 19 -15 43 -14 20 1 28 3 19 6 -10 2 -18 8 -18 12 0
3 -11 8 -25 9 -18 1 -23 -2 -19 -13z"/>
<path d="M304 13 c10 -10 46 -11 40 -1 -3 4 -15 8 -26 8 -12 0 -18 -3 -14 -7z"/>
<path d="M510 10 c20 -13 33 -13 25 0 -3 5 -14 10 -23 10 -15 0 -15 -2 -2 -10z"/>
<path d="M1768 3 c7 -3 16 -2 19 1 4 3 -2 6 -13 5 -11 0 -14 -3 -6 -6z"/>
<path d="M1908 3 c7 -3 16 -2 19 1 4 3 -2 6 -13 5 -11 0 -14 -3 -6 -6z"/>
</g>
</svg>
